<svg xmlns="http://www.w3.org/2000/svg" viewBox="0 0 512 512"><defs><filter id="shadow" x="-40%" y="-40%" width="180%" height="180%"><feDropShadow dx="0" dy="14" stdDeviation="16" flood-color="#000" flood-opacity=".55"/></filter><filter id="glow" x="-60%" y="-60%" width="220%" height="220%"><feGaussianBlur stdDeviation="7" result="b"/><feMerge><feMergeNode in="b"/><feMergeNode in="SourceGraphic"/></feMerge></filter><radialGradient id="green" cx="35%" cy="22%" r="75%"><stop offset="0" stop-color="#E7FFCD"/><stop offset=".22" stop-color="#8DFF3D"/><stop offset=".56" stop-color="#35D70F"/><stop offset=".86" stop-color="#0C7B16"/><stop offset="1" stop-color="#06450E"/></radialGradient><radialGradient id="gold" cx="35%" cy="23%" r="75%"><stop offset="0" stop-color="#FFFBE0"/><stop offset=".2" stop-color="#FFF073"/><stop offset=".5" stop-color="#FFC400"/><stop offset=".82" stop-color="#D87400"/><stop offset="1" stop-color="#743400"/></radialGradient><linearGradient id="purple" x1=".2" y1="0" x2=".8" y2="1"><stop offset="0" stop-color="#F09BFF"/><stop offset=".35" stop-color="#9E2BFF"/><stop offset=".72" stop-color="#4A0D7B"/><stop offset="1" stop-color="#19072B"/></linearGradient><linearGradient id="red" x1=".2" y1="0" x2=".8" y2="1"><stop offset="0" stop-color="#FF9284"/><stop offset=".33" stop-color="#FF2B2B"/><stop offset=".75" stop-color="#8A0707"/><stop offset="1" stop-color="#350000"/></linearGradient><linearGradient id="steel" x1=".2" y1="0" x2=".8" y2="1"><stop offset="0" stop-color="#fff"/><stop offset=".3" stop-color="#AEB6C3"/><stop offset=".75" stop-color="#505763"/><stop offset="1" stop-color="#1C2028"/></linearGradient></defs><g filter="url(#shadow)"><ellipse cx="256" cy="425" rx="165" ry="28" fill="#000" opacity=".42"/><g filter="url(#glow)"><path d="M98 222 H414 V402 Q414 425 391 425 H121 Q98 425 98 402 Z" fill="url(#purple)" stroke="#D45BFF" stroke-width="8"/><path d="M104 218 Q126 96 256 96 Q386 96 408 218 Z" fill="url(#purple)" stroke="#D45BFF" stroke-width="8"/><rect x="238" y="102" width="44" height="323" fill="url(#gold)"/><rect x="98" y="256" width="316" height="42" fill="url(#gold)"/><rect x="218" y="238" width="76" height="78" rx="13" fill="url(#gold)" stroke="#FFE879" stroke-width="5"/><circle cx="160" cy="212" r="24" fill="url(#gold)"/><circle cx="346" cy="212" r="24" fill="url(#gold)"/><circle cx="357" cy="333" r="52" fill="url(#green)" stroke="#A5FF66" stroke-width="6"/><text x="357" y="352" text-anchor="middle" font-family="Arial Black,Arial" font-size="40" fill="#0B6112">SC</text></g></g></svg>